<?xml version="1.0" encoding="utf-8"?>
<COLLADA xmlns="http://www.collada.org/2005/11/COLLADASchema" version="1.4.1">
  <asset><contributor><authoring_tool>script/make_dock_models.py</authoring_tool></contributor>
    <unit meter="1" name="meter"/><up_axis>Z_UP</up_axis></asset>
  
  <library_effects><effect id="mat-fx"><profile_COMMON><technique sid="common"><lambert><diffuse><color>0.420 0.420 0.400 1</color></diffuse></lambert></technique></profile_COMMON></effect></library_effects>
  <library_materials><material id="mat" name="mat"><instance_effect url="#mat-fx"/></material></library_materials>
  <library_geometries>
    <geometry id="aws_robomaker_warehouse_DockYard_01_visual-lib" name="aws_robomaker_warehouse_DockYard_01_visual"><mesh>
      <source id="aws_robomaker_warehouse_DockYard_01_visual-pos"><float_array id="aws_robomaker_warehouse_DockYard_01_visual-POSITION-array" count="72">-23.0450 20.9070 -0.0200 23.0450 20.9070 -0.0200 23.0450 20.9070 0.0000 -23.0450 20.9070 0.0000 23.0450 38.9070 -0.0200 -23.0450 38.9070 -0.0200 -23.0450 38.9070 0.0000 23.0450 38.9070 0.0000 -23.0450 38.9070 -0.0200 -23.0450 20.9070 -0.0200 -23.0450 20.9070 0.0000 -23.0450 38.9070 0.0000 23.0450 20.9070 -0.0200 23.0450 38.9070 -0.0200 23.0450 38.9070 0.0000 23.0450 20.9070 0.0000 -23.0450 20.9070 0.0000 23.0450 20.9070 0.0000 23.0450 38.9070 0.0000 -23.0450 38.9070 0.0000 -23.0450 38.9070 -0.0200 23.0450 38.9070 -0.0200 23.0450 20.9070 -0.0200 -23.0450 20.9070 -0.0200</float_array>
        <technique_common><accessor source="#aws_robomaker_warehouse_DockYard_01_visual-POSITION-array" count="24" stride="3">
          <param name="X" type="float"/><param name="Y" type="float"/><param name="Z" type="float"/></accessor></technique_common></source>
      <source id="aws_robomaker_warehouse_DockYard_01_visual-nrm"><float_array id="aws_robomaker_warehouse_DockYard_01_visual-Normal0-array" count="72">0.000 -1.000 0.000 0.000 -1.000 0.000 0.000 -1.000 0.000 0.000 -1.000 0.000 0.000 1.000 0.000 0.000 1.000 0.000 0.000 1.000 0.000 0.000 1.000 0.000 -1.000 0.000 0.000 -1.000 0.000 0.000 -1.000 0.000 0.000 -1.000 0.000 0.000 1.000 0.000 0.000 1.000 0.000 0.000 1.000 0.000 0.000 1.000 0.000 0.000 0.000 0.000 1.000 0.000 0.000 1.000 0.000 0.000 1.000 0.000 0.000 1.000 0.000 0.000 -1.000 0.000 0.000 -1.000 0.000 0.000 -1.000 0.000 0.000 -1.000</float_array>
        <technique_common><accessor source="#aws_robomaker_warehouse_DockYard_01_visual-Normal0-array" count="24" stride="3">
          <param name="X" type="float"/><param name="Y" type="float"/><param name="Z" type="float"/></accessor></technique_common></source>
      <source id="aws_robomaker_warehouse_DockYard_01_visual-uv"><float_array id="aws_robomaker_warehouse_DockYard_01_visual-UV0-array" count="48">-1.15225 -0.00100 1.15225 -0.00100 1.15225 0.00000 -1.15225 0.00000 1.15225 -0.00100 -1.15225 -0.00100 -1.15225 0.00000 1.15225 0.00000 1.94535 -0.00100 1.04535 -0.00100 1.04535 0.00000 1.94535 0.00000 1.04535 -0.00100 1.94535 -0.00100 1.94535 0.00000 1.04535 0.00000 -1.15225 1.04535 1.15225 1.04535 1.15225 1.94535 -1.15225 1.94535 -1.15225 1.94535 1.15225 1.94535 1.15225 1.04535 -1.15225 1.04535</float_array>
        <technique_common><accessor source="#aws_robomaker_warehouse_DockYard_01_visual-UV0-array" count="24" stride="2">
          <param name="S" type="float"/><param name="T" type="float"/></accessor></technique_common></source>
      <vertices id="aws_robomaker_warehouse_DockYard_01_visual-vtx"><input semantic="POSITION" source="#aws_robomaker_warehouse_DockYard_01_visual-pos"/></vertices>
      <triangles material="mat" count="12">
        <input semantic="VERTEX" source="#aws_robomaker_warehouse_DockYard_01_visual-vtx" offset="0"/>
        <input semantic="NORMAL" source="#aws_robomaker_warehouse_DockYard_01_visual-nrm" offset="1"/>
        <input semantic="TEXCOORD" source="#aws_robomaker_warehouse_DockYard_01_visual-uv" offset="2" set="0"/>
        <p>0 0 0 1 1 1 2 2 2 0 0 0 2 2 2 3 3 3 4 4 4 5 5 5 6 6 6 4 4 4 6 6 6 7 7 7 8 8 8 9 9 9 10 10 10 8 8 8 10 10 10 11 11 11 12 12 12 13 13 13 14 14 14 12 12 12 14 14 14 15 15 15 16 16 16 17 17 17 18 18 18 16 16 16 18 18 18 19 19 19 20 20 20 21 21 21 22 22 22 20 20 20 22 22 22 23 23 23</p></triangles>
    </mesh></geometry>
  </library_geometries>
  <library_visual_scenes><visual_scene id="scene" name="scene">
    <node id="aws_robomaker_warehouse_DockYard_01_visual" name="aws_robomaker_warehouse_DockYard_01_visual"><instance_geometry url="#aws_robomaker_warehouse_DockYard_01_visual-lib">
      <bind_material><technique_common><instance_material symbol="mat" target="#mat">
        <bind_vertex_input semantic="UVSET0" input_semantic="TEXCOORD" input_set="0"/></instance_material></technique_common></bind_material>
    </instance_geometry></node></visual_scene></library_visual_scenes>
  <scene><instance_visual_scene url="#scene"/></scene>
</COLLADA>
