<?xml version="1.0" encoding="utf-8"?>
<COLLADA xmlns="http://www.collada.org/2005/11/COLLADASchema" version="1.4.1">
  <asset><contributor><author></author><authoring_tool>FBX COLLADA exporter</authoring_tool><comments></comments></contributor><created>2019-05-15T08:15:48Z</created><keywords></keywords><modified>2019-05-15T08:15:48Z</modified><revision></revision><subject></subject><title></title><unit meter="0.010000" name="centimeter"></unit><up_axis>Z_UP</up_axis></asset>
  <library_images>
    <image id="Map #1123124520-image" name="Map #1123124520"><init_from>../materials/textures/aws_robomaker_warehouse_GroundB_01.png</init_from></image>
    <image id="Map #1123124521-image" name="Map #1123124521"><init_from>../materials/textures/aws_robomaker_warehouse_GroundB_02.png</init_from></image>
  </library_images>
  <library_materials>
    <material id="Material #946568" name="Material #946568">
      <instance_effect url="#Material #946568-fx"/>
    </material>
    <material id="Material #946569" name="Material #946569">
      <instance_effect url="#Material #946569-fx"/>
    </material>
  </library_materials>
  <library_effects>
    <effect id="Material #946568-fx" name="Material #946568">
      <profile_COMMON>
        <technique sid="standard">
          <phong>
            <emission>
              <color sid="emission">0.000000  0.000000 0.000000 1.000000</color>
            </emission>
            <ambient>
              <color sid="ambient">0.588000  0.588000 0.588000 1.000000</color>
            </ambient>
            <diffuse>
              <texture texture="Map #1123124520-image" texcoord="CHANNEL0">
                <extra>
                  <technique profile="MAYA">
                    <wrapU sid="wrapU0">TRUE</wrapU>
                    <wrapV sid="wrapV0">TRUE</wrapV>
                    <blend_mode>ADD</blend_mode>
                  </technique>
                </extra>
              </texture>
            </diffuse>
            <specular>
              <color sid="specular">0.000000  0.000000 0.000000 1.000000</color>
            </specular>
            <shininess>
              <float sid="shininess">2.000000</float>
            </shininess>
            <reflective>
              <color sid="reflective">0.000000  0.000000 0.000000 1.000000</color>
            </reflective>
            <reflectivity>
              <float sid="reflectivity">1.000000</float>
            </reflectivity>
            <transparent opaque="RGB_ZERO">
              <color sid="transparent">1.000000  1.000000 1.000000 1.000000</color>
            </transparent>
            <transparency>
              <float sid="transparency">0.000000</float>
            </transparency>
          </phong>
        </technique>
      </profile_COMMON>
    </effect>
    <effect id="Material #946569-fx" name="Material #946569">
      <profile_COMMON>
        <technique sid="standard">
          <phong>
            <emission>
              <color sid="emission">0.000000  0.000000 0.000000 1.000000</color>
            </emission>
            <ambient>
              <color sid="ambient">0.588000  0.588000 0.588000 1.000000</color>
            </ambient>
            <diffuse>
              <texture texture="Map #1123124521-image" texcoord="CHANNEL0">
                <extra>
                  <technique profile="MAYA">
                    <wrapU sid="wrapU0">TRUE</wrapU>
                    <wrapV sid="wrapV0">TRUE</wrapV>
                    <blend_mode>ADD</blend_mode>
                  </technique>
                </extra>
              </texture>
            </diffuse>
            <specular>
              <color sid="specular">0.000000  0.000000 0.000000 1.000000</color>
            </specular>
            <shininess>
              <float sid="shininess">2.000000</float>
            </shininess>
            <reflective>
              <color sid="reflective">0.000000  0.000000 0.000000 1.000000</color>
            </reflective>
            <reflectivity>
              <float sid="reflectivity">1.000000</float>
            </reflectivity>
            <transparent opaque="RGB_ZERO">
              <color sid="transparent">1.000000  1.000000 1.000000 1.000000</color>
            </transparent>
            <transparency>
              <float sid="transparency">0.000000</float>
            </transparency>
          </phong>
        </technique>
      </profile_COMMON>
    </effect>
  </library_effects>
  <library_geometries>
    <geometry id="aws_robomaker_warehouse_GroundB_01_visual-lib" name="aws_robomaker_warehouse_GroundB_01_visualMesh">
      <mesh>
        <source id="aws_robomaker_warehouse_GroundB_01_visual-POSITION">
          <float_array id="aws_robomaker_warehouse_GroundB_01_visual-POSITION-array" count="516">
-2104.462087 -2090.666504 -0.000123
2104.462087 -2090.666504 -0.000124
-2104.462087 -2090.666504 12.431540
2104.462087 -2090.666504 12.431539
-2104.462087 2090.666504 0.000128
2104.462087 2090.666504 0.000129
-2104.462087 2090.666260 12.431791
2104.462087 2090.666260 12.431792
-768.945000 -475.496582 12.445392
134.227250 -475.496582 12.445392
-768.945000 124.503410 12.445440
134.227250 124.503410 12.445440
-747.183383 -461.039794 12.445393
112.465637 -461.039794 12.445393
112.465637 110.046624 12.445439
-747.183383 110.046624 12.445439
-768.945000 -1764.310546 12.445316
134.227250 -1764.310546 12.445316
-768.945000 -1164.310546 12.445366
134.227250 -1164.310546 12.445366
-747.183383 -1749.853760 12.445318
112.465637 -1749.853760 12.445318
112.465637 -1178.767334 12.445364
-747.183383 -1178.767334 12.445364
-768.945000 -1119.903564 12.445369
134.227250 -1119.903564 12.445369
-768.945000 -519.903564 12.445388
134.227250 -519.903564 12.445388
-747.183383 -1105.446778 12.445371
112.465637 -1105.446778 12.445371
112.465637 -534.360352 12.445387
-747.183383 -534.360352 12.445387
-768.945000 168.910400 12.445444
134.227250 168.910400 12.445444
-768.945000 768.910400 12.445462
134.227250 768.910400 12.445462
-747.183383 183.367188 12.445445
112.465637 183.367188 12.445445
112.465637 754.453614 12.445461
-747.183383 754.453614 12.445461
-768.945000 813.317382 12.445527
134.227250 813.317382 12.445527
-768.945000 1413.317382 12.445576
134.227250 1413.317382 12.445576
-747.183383 827.774170 12.445528
112.465637 827.774170 12.445528
112.465637 1398.860596 12.445575
-747.183383 1398.860596 12.445575
398.418638 -2087.436036 12.445252
425.833532 -2087.436036 12.445252
398.418638 2093.614746 12.445501
425.833532 2093.614746 12.445501
425.833532 -1816.260742 12.445269
398.418638 -1816.260742 12.445269
425.833532 -1967.305420 12.445258
398.418638 -1967.305420 12.445258
425.833532 -1985.017334 12.445259
398.418638 -1985.017334 12.445259
-1275.503594 -1967.305420 12.445258
-1275.503594 -1985.017334 12.445259
425.833532 -1799.132324 12.445268
398.418638 -1799.132324 12.445268
-1016.787706 -1816.260742 12.445269
-1016.787706 -1799.132324 12.445268
-992.147908 -1816.260742 12.445269
-992.147908 -1799.132324 12.445268
-1016.787706 2093.614746 12.445501
-992.147908 2093.614746 12.445501
-1250.274601 -1967.305420 12.445258
-1250.274601 -1985.017334 12.445259
-1275.503594 2093.614746 12.445501
-1250.274601 2093.614746 12.445501
-1275.503594 1767.218018 12.445482
-1250.274601 1767.218018 12.445482
-1250.274601 1919.698608 12.445491
-1275.503594 1919.698608 12.445491
-1275.503778 1751.423096 12.445481
-1250.274601 1751.423218 12.445481
-2065.612193 1767.218018 12.445482
-2065.612193 1751.423096 12.445481
-1250.274601 1936.036132 12.445493
-1275.503594 1936.036132 12.445493
-2077.215692 1919.698608 12.445491
-2077.215692 1936.036132 12.445493
649.387453 -2088.264648 12.445252
676.802346 -2088.264648 12.445252
649.387453 355.000244 12.445397
676.802346 355.000244 12.445397
676.802346 336.434326 12.445396
649.387453 336.434326 12.445396
2110.375005 355.000244 12.445397
2110.375005 336.434326 12.445396
649.387453 516.191162 12.445407
676.802346 516.191162 12.445407
676.802346 2093.614746 12.445501
649.387453 2093.614746 12.445501
676.802346 533.752198 12.445409
649.387453 533.752198 12.445409
2110.375005 516.191162 12.445407
2110.375005 533.752198 12.445409
-1970.600000 -1764.300000 12.450000
-1370.600000 -1764.300000 12.450000
-1970.600000 -1164.300000 12.450000
-1370.600000 -1164.300000 12.450000
-1948.840000 -1749.840000 12.450000
-1392.360000 -1749.840000 12.450000
-1392.360000 -1178.760000 12.450000
-1948.840000 -1178.760000 12.450000
-1970.600000 -1119.900000 12.450000
-1370.600000 -1119.900000 12.450000
-1970.600000 -519.900000 12.450000
-1370.600000 -519.900000 12.450000
-1948.840000 -1105.440000 12.450000
-1392.360000 -1105.440000 12.450000
-1392.360000 -534.360000 12.450000
-1948.840000 -534.360000 12.450000
-1970.600000 -475.500000 12.450000
-1370.600000 -475.500000 12.450000
-1970.600000 124.500000 12.450000
-1370.600000 124.500000 12.450000
-1948.840000 -461.040000 12.450000
-1392.360000 -461.040000 12.450000
-1392.360000 110.040000 12.450000
-1948.840000 110.040000 12.450000
-1970.600000 168.900000 12.450000
-1370.600000 168.900000 12.450000
-1970.600000 768.900000 12.450000
-1370.600000 768.900000 12.450000
-1948.840000 183.360000 12.450000
-1392.360000 183.360000 12.450000
-1392.360000 754.440000 12.450000
-1948.840000 754.440000 12.450000
-1970.600000 813.300000 12.450000
-1370.600000 813.300000 12.450000
-1970.600000 1413.300000 12.450000
-1370.600000 1413.300000 12.450000
-1948.840000 827.760000 12.450000
-1392.360000 827.760000 12.450000
-1392.360000 1398.840000 12.450000
-1948.840000 1398.840000 12.450000
918.200000 -1764.300000 12.450000
1821.200000 -1764.300000 12.450000
918.200000 -1164.300000 12.450000
1821.200000 -1164.300000 12.450000
939.960000 -1749.840000 12.450000
1799.440000 -1749.840000 12.450000
1799.440000 -1178.760000 12.450000
939.960000 -1178.760000 12.450000
918.200000 -1119.900000 12.450000
1821.200000 -1119.900000 12.450000
918.200000 -519.900000 12.450000
1821.200000 -519.900000 12.450000
939.960000 -1105.440000 12.450000
1799.440000 -1105.440000 12.450000
1799.440000 -534.360000 12.450000
939.960000 -534.360000 12.450000
918.200000 -475.500000 12.450000
1821.200000 -475.500000 12.450000
918.200000 124.500000 12.450000
1821.200000 124.500000 12.450000
939.960000 -461.040000 12.450000
1799.440000 -461.040000 12.450000
1799.440000 110.040000 12.450000
939.960000 110.040000 12.450000
918.200000 813.300000 12.450000
1821.200000 813.300000 12.450000
918.200000 1413.300000 12.450000
1821.200000 1413.300000 12.450000
939.960000 827.760000 12.450000
1799.440000 827.760000 12.450000
1799.440000 1398.840000 12.450000
939.960000 1398.840000 12.450000
</float_array>
          <technique_common>
            <accessor source="#aws_robomaker_warehouse_GroundB_01_visual-POSITION-array" count="172" stride="3">
              <param name="X" type="float"/>
              <param name="Y" type="float"/>
              <param name="Z" type="float"/>
            </accessor>
          </technique_common>
        </source>
        <source id="aws_robomaker_warehouse_GroundB_01_visual-Normal0">
          <float_array id="aws_robomaker_warehouse_GroundB_01_visual-Normal0-array" count="846">
0.000000 -1.000000 0.000000
0.000000 -1.000000 0.000000
0.000000 -1.000000 0.000000
0.000000 -1.000000 0.000000
0.000000 -1.000000 0.000000
0.000000 -1.000000 0.000000
-0.000000 1.000000 0.000010
-0.000000 1.000000 0.000010
-0.000000 1.000000 0.000010
-0.000000 1.000000 0.000010
-0.000000 1.000000 0.000010
-0.000000 1.000000 0.000010
0.000000 0.000000 -1.000000
0.000000 0.000000 -1.000000
0.000000 0.000000 -1.000000
0.000000 0.000000 -1.000000
0.000000 0.000000 -1.000000
0.000000 0.000000 -1.000000
1.000000 0.000000 0.000000
1.000000 0.000000 0.000000
1.000000 0.000000 0.000000
1.000000 0.000000 0.000000
1.000000 0.000000 0.000000
1.000000 0.000000 0.000000
0.000000 -0.000000 1.000000
0.000000 -0.000000 1.000000
0.000000 -0.000000 1.000000
0.000000 -0.000000 1.000000
0.000000 -0.000000 1.000000
0.000000 -0.000000 1.000000
-1.000000 0.000000 0.000000
-1.000000 0.000000 0.000000
-1.000000 0.000000 0.000000
-1.000000 0.000000 0.000000
-1.000000 0.000000 0.000000
-1.000000 0.000000 0.000000
0.000000 -0.000000 1.000000
0.000000 -0.000000 1.000000
0.000000 -0.000000 1.000000
0.000000 -0.000000 1.000000
0.000000 -0.000000 1.000000
0.000000 -0.000000 1.000000
-0.000000 -0.000000 1.000000
-0.000000 -0.000000 1.000000
-0.000000 -0.000000 1.000000
-0.000000 -0.000000 1.000000
-0.000000 -0.000000 1.000000
-0.000000 -0.000000 1.000000
0.000000 -0.000000 1.000000
0.000000 -0.000000 1.000000
0.000000 -0.000000 1.000000
0.000000 -0.000000 1.000000
0.000000 -0.000000 1.000000
0.000000 -0.000000 1.000000
0.000000 -0.000000 1.000000
0.000000 -0.000000 1.000000
0.000000 -0.000000 1.000000
0.000000 -0.000000 1.000000
0.000000 -0.000000 1.000000
0.000000 -0.000000 1.000000
0.000000 -0.000000 1.000000
0.000000 -0.000000 1.000000
0.000000 -0.000000 1.000000
0.000000 -0.000000 1.000000
0.000000 -0.000000 1.000000
0.000000 -0.000000 1.000000
0.000000 -0.000000 1.000000
0.000000 -0.000000 1.000000
0.000000 -0.000000 1.000000
0.000000 -0.000000 1.000000
0.000000 -0.000000 1.000000
0.000000 -0.000000 1.000000
0.000000 -0.000000 1.000000
0.000000 -0.000000 1.000000
0.000000 -0.000000 1.000000
0.000000 -0.000000 1.000000
0.000000 -0.000000 1.000000
0.000000 -0.000000 1.000000
0.000000 -0.000000 1.000000
0.000000 -0.000000 1.000000
0.000000 -0.000000 1.000000
0.000000 -0.000000 1.000000
0.000000 -0.000000 1.000000
0.000000 -0.000000 1.000000
0.000000 -0.000000 1.000000
0.000000 -0.000000 1.000000
0.000000 -0.000000 1.000000
0.000000 -0.000000 1.000000
0.000000 -0.000000 1.000000
0.000000 -0.000000 1.000000
0.000000 -0.000000 1.000000
0.000000 -0.000000 1.000000
0.000000 -0.000000 1.000000
0.000000 -0.000000 1.000000
0.000000 -0.000000 1.000000
0.000000 -0.000000 1.000000
0.000000 -0.000000 1.000000
0.000000 -0.000000 1.000000
0.000000 -0.000000 1.000000
0.000000 -0.000000 1.000000
0.000000 -0.000000 1.000000
0.000000 -0.000000 1.000000
-0.000000 -0.000000 1.000000
-0.000000 -0.000000 1.000000
-0.000000 -0.000000 1.000000
-0.000000 -0.000000 1.000000
-0.000000 -0.000000 1.000000
-0.000000 -0.000000 1.000000
0.000000 -0.000000 1.000000
0.000000 -0.000000 1.000000
0.000000 -0.000000 1.000000
0.000000 -0.000000 1.000000
0.000000 -0.000000 1.000000
0.000000 -0.000000 1.000000
0.000000 -0.000000 1.000000
0.000000 -0.000000 1.000000
0.000000 -0.000000 1.000000
0.000000 -0.000000 1.000000
0.000000 -0.000000 1.000000
0.000000 -0.000000 1.000000
0.000000 -0.000000 1.000000
0.000000 -0.000000 1.000000
0.000000 -0.000000 1.000000
0.000000 -0.000000 1.000000
0.000000 -0.000000 1.000000
0.000000 -0.000000 1.000000
0.000000 -0.000000 1.000000
0.000000 -0.000000 1.000000
0.000000 -0.000000 1.000000
0.000000 -0.000000 1.000000
0.000000 -0.000000 1.000000
0.000000 -0.000000 1.000000
0.000000 -0.000000 1.000000
0.000000 -0.000000 1.000000
0.000000 -0.000000 1.000000
0.000000 -0.000000 1.000000
0.000000 -0.000000 1.000000
0.000000 -0.000000 1.000000
-0.000000 -0.000000 1.000000
-0.000000 -0.000000 1.000000
-0.000000 -0.000000 1.000000
-0.000000 -0.000000 1.000000
-0.000000 -0.000000 1.000000
-0.000000 -0.000000 1.000000
0.000000 -0.000000 1.000000
0.000000 -0.000000 1.000000
0.000000 -0.000000 1.000000
0.000000 -0.000000 1.000000
0.000000 -0.000000 1.000000
0.000000 -0.000000 1.000000
-0.000000 -0.000000 1.000000
-0.000000 -0.000000 1.000000
-0.000000 -0.000000 1.000000
-0.000000 -0.000000 1.000000
-0.000000 -0.000000 1.000000
-0.000000 -0.000000 1.000000
0.000000 -0.000000 1.000000
0.000000 -0.000000 1.000000
0.000000 -0.000000 1.000000
0.000000 -0.000000 1.000000
0.000000 -0.000000 1.000000
0.000000 -0.000000 1.000000
0.000000 -0.000000 1.000000
0.000000 0.000000 1.000000
0.000000 -0.000000 1.000000
0.000000 -0.000000 1.000000
0.000000 0.000000 1.000000
0.000000 0.000000 1.000000
0.000000 0.000000 1.000000
0.000000 -0.000000 1.000000
0.000000 0.000000 1.000000
0.000000 0.000000 1.000000
0.000000 -0.000000 1.000000
0.000000 -0.000000 1.000000
0.000000 0.000000 1.000000
0.000000 0.000000 1.000000
0.000000 0.000000 1.000000
0.000000 0.000000 1.000000
0.000000 0.000000 1.000000
0.000000 0.000000 1.000000
0.000000 -0.000000 1.000000
0.000000 -0.000000 1.000000
0.000000 -0.000000 1.000000
0.000000 -0.000000 1.000000
0.000000 -0.000000 1.000000
0.000000 -0.000000 1.000000
0.000000 0.000000 1.000000
0.000000 0.000000 1.000000
0.000000 0.000000 1.000000
0.000000 0.000000 1.000000
0.000000 0.000000 1.000000
0.000000 0.000000 1.000000
0.000000 0.000000 1.000000
0.000000 0.000000 1.000000
0.000000 0.000000 1.000000
0.000000 0.000000 1.000000
0.000000 0.000000 1.000000
0.000000 0.000000 1.000000
0.000000 -0.000000 1.000000
0.000000 -0.000000 1.000000
0.000000 -0.000000 1.000000
0.000000 -0.000000 1.000000
0.000000 -0.000000 1.000000
0.000000 -0.000000 1.000000
0.000000 0.000000 1.000000
0.000000 0.000000 1.000000
0.000000 0.000000 1.000000
0.000000 0.000000 1.000000
0.000000 0.000000 1.000000
0.000000 0.000000 1.000000
0.000000 -0.000000 1.000000
0.000000 -0.000000 1.000000
0.000000 -0.000000 1.000000
0.000000 -0.000000 1.000000
0.000000 -0.000000 1.000000
0.000000 -0.000000 1.000000
0.000000 -0.000000 1.000000
0.000000 -0.000000 1.000000
0.000000 -0.000000 1.000000
0.000000 -0.000000 1.000000
0.000000 -0.000000 1.000000
0.000000 -0.000000 1.000000
0.000000 -0.000000 1.000000
0.000000 -0.000000 1.000000
0.000000 -0.000000 1.000000
0.000000 -0.000000 1.000000
0.000000 -0.000000 1.000000
0.000000 -0.000000 1.000000
0.000000 -0.000000 1.000000
0.000000 -0.000000 1.000000
0.000000 -0.000000 1.000000
0.000000 -0.000000 1.000000
0.000000 -0.000000 1.000000
0.000000 -0.000000 1.000000
0.000000 -0.000000 1.000000
0.000000 -0.000000 1.000000
0.000000 -0.000000 1.000000
0.000000 -0.000000 1.000000
0.000000 -0.000000 1.000000
0.000000 -0.000000 1.000000
0.000000 -0.000000 1.000000
0.000000 -0.000000 1.000000
0.000000 -0.000000 1.000000
0.000000 -0.000000 1.000000
0.000000 -0.000000 1.000000
0.000000 -0.000000 1.000000
0.000000 -0.000000 1.000000
0.000000 -0.000000 1.000000
0.000000 -0.000000 1.000000
0.000000 -0.000000 1.000000
0.000000 -0.000000 1.000000
0.000000 -0.000000 1.000000
0.000000 -0.000000 1.000000
0.000000 -0.000000 1.000000
0.000000 -0.000000 1.000000
0.000000 -0.000000 1.000000
0.000000 -0.000000 1.000000
0.000000 -0.000000 1.000000
0.000000 -0.000000 1.000000
0.000000 -0.000000 1.000000
0.000000 -0.000000 1.000000
0.000000 -0.000000 1.000000
0.000000 -0.000000 1.000000
0.000000 -0.000000 1.000000
0.000000 -0.000000 1.000000
0.000000 -0.000000 1.000000
0.000000 -0.000000 1.000000
0.000000 -0.000000 1.000000
0.000000 -0.000000 1.000000
0.000000 -0.000000 1.000000
0.000000 -0.000000 1.000000
0.000000 -0.000000 1.000000
0.000000 -0.000000 1.000000
0.000000 -0.000000 1.000000
0.000000 -0.000000 1.000000
0.000000 -0.000000 1.000000
0.000000 -0.000000 1.000000
0.000000 -0.000000 1.000000
0.000000 -0.000000 1.000000
0.000000 -0.000000 1.000000
0.000000 -0.000000 1.000000
0.000000 -0.000000 1.000000
</float_array>
          <technique_common>
            <accessor source="#aws_robomaker_warehouse_GroundB_01_visual-Normal0-array" count="282" stride="3">
              <param name="X" type="float"/>
              <param name="Y" type="float"/>
              <param name="Z" type="float"/>
            </accessor>
          </technique_common>
        </source>
        <source id="aws_robomaker_warehouse_GroundB_01_visual-UV0">
          <float_array id="aws_robomaker_warehouse_GroundB_01_visual-UV0-array" count="328">
9.693788 5.101356
9.693788 9.692530
9.652954 9.692530
9.652954 5.101356
9.567460 5.101356
9.608294 5.101356
9.608294 9.692530
9.567460 9.692530
2.444684 5.144108
9.310412 5.144108
9.310412 9.735280
2.444684 9.735280
2.444682 9.906856
9.310412 9.906856
9.310410 9.947690
2.444682 9.947690
2.359188 0.228180
9.224918 0.228182
9.224916 4.819356
2.359188 4.819356
2.828926 5.480492
2.828926 -1.385238
2.869750 -1.385238
2.869750 5.480492
-1.691137 1.355757
-1.976730 0.985989
-1.933884 0.943143
-1.733945 1.312949
-1.976730 -0.792248
-1.933884 -0.749402
-1.691137 -0.420905
-1.733945 -0.378097
-1.799502 -0.426135
-1.798186 -0.952645
-1.755340 -0.995491
-1.842348 -0.468980
-1.798186 -2.730882
-1.755340 -2.688036
-1.799502 -2.204372
-1.842348 -2.161526
-1.799502 1.365183
-1.798186 0.838673
-1.755340 0.795827
-1.842348 1.322337
-1.798186 -0.939565
-1.755340 -0.896719
-1.799502 -0.413054
-1.842348 -0.370208
-1.730909 -0.433973
-1.875866 -0.575192
-1.833020 -0.618038
-1.773717 -0.476781
-1.875866 -2.353429
-1.833020 -2.310584
-1.730909 -2.210634
-1.773717 -2.167826
-1.958919 2.451030
-1.717841 -0.433973
-1.675033 -0.476781
-2.001765 2.408185
-1.717841 -2.210634
-1.675033 -2.167826
-1.958919 0.672793
-2.001765 0.715639
0.521328 0.470354
0.521328 0.474995
0.410392 1.020932
0.410392 1.016567
0.415033 1.016567
-1.461452 0.891229
0.495226 0.474995
-1.461452 0.864380
0.495226 0.470354
-1.461452 0.858776
-1.461452 0.864380
-1.461452 0.858776
0.415033 1.020932
-1.461452 0.896788
-1.461452 0.896788
-1.461452 0.891229
-1.461452 0.891229
-1.461452 0.896788
-1.461452 0.896788
-1.461452 0.896788
-1.461452 0.864380
-1.461452 0.858776
-1.461452 0.864380
-1.461452 0.864380
-1.461452 0.864380
-1.461452 0.864380
-1.461452 0.864380
-1.461452 0.864380
-1.461452 0.864380
-1.461452 0.864380
-1.461452 0.864380
-1.461452 0.864380
-1.461452 0.864380
-1.461452 0.864380
-1.461452 0.864380
-1.461452 0.864380
0.436771 0.036056
0.441413 0.036056
0.422756 0.026574
0.422756 0.021932
0.418024 0.026574
0.418024 0.021932
0.422756 0.269288
0.418024 0.269288
-1.767357 1.965086
-1.767357 0.186848
0.425656 0.029564
0.430298 0.029564
0.430298 0.034040
0.425656 0.034040
0.430297 0.431580
0.425656 0.431580
0.444403 0.403750
0.448879 0.403750
-1.724511 0.229694
-1.724511 1.922239
-1.855502 0.428975
-1.898310 0.471783
-1.855502 2.205637
-1.898310 2.162829
-1.842433 0.376135
-1.842433 -1.400526
-1.799625 -1.357718
-1.799626 0.333327
-1.743367 -2.377502
-1.786175 -2.334694
-1.743367 -0.600840
-1.786175 -0.643649
-1.795829 2.663701
-1.795829 0.885463
-1.752983 0.928309
-1.752983 2.620854
-1.855502 -1.400526
-1.898310 -1.357718
-1.855502 0.376135
-1.898310 0.333327
-1.842434 2.165865
-1.842433 0.389204
-1.799626 0.432011
-1.799626 2.123057
-1.743367 -0.587772
-1.786175 -0.544964
-1.743367 1.188889
-1.786175 1.146081
-1.842434 3.955595
-1.842434 2.178934
-1.799626 2.221741
-1.799626 3.912786
-1.743367 1.201958
-1.786175 1.244766
-1.743367 2.978619
-1.786175 2.935811
0.410392 0.024476
0.415033 0.024476
0.490712 0.474995
0.490712 0.470354
0.441413 0.654006
0.436771 0.654006
0.444403 0.646464
0.448879 0.646464
</float_array>
          <technique_common>
            <accessor source="#aws_robomaker_warehouse_GroundB_01_visual-UV0-array" count="164" stride="2">
              <param name="S" type="float"/>
              <param name="T" type="float"/>
            </accessor>
          </technique_common>
        </source>
        <vertices id="aws_robomaker_warehouse_GroundB_01_visual-VERTEX">
          <input semantic="POSITION" source="#aws_robomaker_warehouse_GroundB_01_visual-POSITION"/>
        </vertices>
        <triangles count="12" material="Material #946568"><input semantic="VERTEX" offset="0" source="#aws_robomaker_warehouse_GroundB_01_visual-VERTEX"/><input semantic="NORMAL" offset="1" source="#aws_robomaker_warehouse_GroundB_01_visual-Normal0"/><input semantic="TEXCOORD" offset="2" set="0" source="#aws_robomaker_warehouse_GroundB_01_visual-UV0"/><p> 3 0 2 2 1 3 0 2 0 3 3 2 0 4 0 1 5 1 6 6 5 5 7 7 4 8 4 5 9 7 6 10 5 7 11 6 1 12 11 0 13 8 5 14 10 0 15 8 4 16 9 5 17 10 7 18 14 3 19 15 1 20 12 7 21 14 1 22 12 5 23 13 6 24 18 3 25 16 7 26 17 3 27 16 6 28 18 2 29 19 6 30 21 0 31 23 2 32 20 0 33 23 6 34 21 4 35 22</p></triangles>
        <triangles count="154" material="Material #946569"><input semantic="VERTEX" offset="0" source="#aws_robomaker_warehouse_GroundB_01_visual-VERTEX"/><input semantic="NORMAL" offset="1" source="#aws_robomaker_warehouse_GroundB_01_visual-Normal0"/><input semantic="TEXCOORD" offset="2" set="0" source="#aws_robomaker_warehouse_GroundB_01_visual-UV0"/><p> 8 36 108 9 37 109 13 38 118 8 39 108 13 40 118 12 41 119 9 42 25 11 43 28 14 44 29 9 45 25 14 46 29 13 47 26 11 48 120 10 49 122 15 50 123 11 51 120 15 52 123 14 53 121 10 54 30 8 55 24 12 56 27 10 57 30 12 58 27 15 59 31 16 60 124 17 61 125 21 62 126 16 63 124 21 64 126 20 65 127 17 66 33 19 67 36 22 68 37 17 69 33 22 70 37 21 71 34 19 72 128 18 73 130 23 74 131 19 75 128 23 76 131 22 77 129 18 78 38 16 79 32 20 80 35 18 81 38 20 82 35 23 83 39 24 84 132 25 85 133 29 86 134 24 87 132 29 88 134 28 89 135 25 90 41 27 91 44 30 92 45 25 93 41 30 94 45 29 95 42 27 96 136 26 97 138 31 98 139 27 99 136 31 100 139 30 101 137 26 102 46 24 103 40 28 104 43 26 105 46 28 106 43 31 107 47 32 108 140 33 109 141 37 110 142 32 111 140 37 112 142 36 113 143 33 114 49 35 115 52 38 116 53 33 117 49 38 118 53 37 119 50 35 120 144 34 121 146 39 122 147 35 123 144 39 124 147 38 125 145 34 126 54 32 127 48 36 128 51 34 129 54 36 130 51 39 131 55 40 132 148 41 133 149 45 134 150 40 135 148 45 136 150 44 137 151 41 138 57 43 139 60 46 140 61 41 141 57 46 142 61 45 143 58 43 144 152 42 145 154 47 146 155 43 147 152 47 148 155 46 149 153 42 150 62 40 151 56 44 152 59 42 153 62 44 154 59 47 155 63 57 156 72 49 157 65 56 158 70 49 159 65 57 160 72 48 161 64 61 162 68 53 163 76 60 164 67 60 165 67 53 166 76 52 167 66 55 168 159 57 169 72 54 170 158 54 171 158 57 172 72 56 173 70 69 174 85 55 175 71 68 176 84 55 177 71 69 178 85 57 179 73 50 180 157 61 181 68 51 182 156 51 183 156 61 184 68 60 185 67 61 186 77 65 187 81 64 188 80 61 189 77 64 190 80 53 191 69 65 192 81 63 193 78 64 194 80 63 195 78 62 196 79 64 197 80 66 198 83 63 199 78 67 200 82 67 201 82 63 202 78 65 203 81 68 204 84 58 205 74 69 206 85 58 207 74 59 208 75 69 209 85 76 210 92 68 211 84 77 212 93 68 213 84 76 214 92 58 215 74 81 216 97 75 217 91 80 218 96 80 219 96 75 220 91 74 221 90 72 222 88 77 223 93 73 224 89 77 225 93 72 226 88 76 227 92 78 228 94 76 229 92 72 230 88 76 231 92 78 232 94 79 233 95 81 234 97 71 235 86 70 236 87 71 237 86 81 238 97 80 239 96 83 240 98 75 241 91 81 242 97 75 243 91 83 244 98 82 245 99 89 246 161 84 247 100 88 248 160 88 249 160 84 250 100 85 251 101 86 252 105 89 253 103 87 254 104 87 255 104 89 256 103 88 257 102 88 258 102 91 259 106 87 260 104 90 261 107 87 262 104 91 263 106 97 264 113 93 265 111 96 266 112 93 267 111 97 268 113 92 269 110 95 270 115 97 271 113 94 272 114 94 273 114 97 274 113 96 275 112 93 276 162 98 277 116 96 278 163 99 279 117 96 280 163 98 281 116 100 36 108 101 37 109 105 38 118 100 39 108 105 40 118 104 41 119 101 42 25 103 43 28 106 44 29 101 45 25 106 46 29 105 47 26 103 48 120 102 49 122 107 50 123 103 51 120 107 52 123 106 53 121 102 54 30 100 55 24 104 56 27 102 57 30 104 58 27 107 59 31 108 36 108 109 37 109 113 38 118 108 39 108 113 40 118 112 41 119 109 42 25 111 43 28 114 44 29 109 45 25 114 46 29 113 47 26 111 48 120 110 49 122 115 50 123 111 51 120 115 52 123 114 53 121 110 54 30 108 55 24 112 56 27 110 57 30 112 58 27 115 59 31 116 36 108 117 37 109 121 38 118 116 39 108 121 40 118 120 41 119 117 42 25 119 43 28 122 44 29 117 45 25 122 46 29 121 47 26 119 48 120 118 49 122 123 50 123 119 51 120 123 52 123 122 53 121 118 54 30 116 55 24 120 56 27 118 57 30 120 58 27 123 59 31 124 36 108 125 37 109 129 38 118 124 39 108 129 40 118 128 41 119 125 42 25 127 43 28 130 44 29 125 45 25 130 46 29 129 47 26 127 48 120 126 49 122 131 50 123 127 51 120 131 52 123 130 53 121 126 54 30 124 55 24 128 56 27 126 57 30 128 58 27 131 59 31 132 36 108 133 37 109 137 38 118 132 39 108 137 40 118 136 41 119 133 42 25 135 43 28 138 44 29 133 45 25 138 46 29 137 47 26 135 48 120 134 49 122 139 50 123 135 51 120 139 52 123 138 53 121 134 54 30 132 55 24 136 56 27 134 57 30 136 58 27 139 59 31 140 36 108 141 37 109 145 38 118 140 39 108 145 40 118 144 41 119 141 42 25 143 43 28 146 44 29 141 45 25 146 46 29 145 47 26 143 48 120 142 49 122 147 50 123 143 51 120 147 52 123 146 53 121 142 54 30 140 55 24 144 56 27 142 57 30 144 58 27 147 59 31 148 36 108 149 37 109 153 38 118 148 39 108 153 40 118 152 41 119 149 42 25 151 43 28 154 44 29 149 45 25 154 46 29 153 47 26 151 48 120 150 49 122 155 50 123 151 51 120 155 52 123 154 53 121 150 54 30 148 55 24 152 56 27 150 57 30 152 58 27 155 59 31 156 36 108 157 37 109 161 38 118 156 39 108 161 40 118 160 41 119 157 42 25 159 43 28 162 44 29 157 45 25 162 46 29 161 47 26 159 48 120 158 49 122 163 50 123 159 51 120 163 52 123 162 53 121 158 54 30 156 55 24 160 56 27 158 57 30 160 58 27 163 59 31 164 36 108 165 37 109 169 38 118 164 39 108 169 40 118 168 41 119 165 42 25 167 43 28 170 44 29 165 45 25 170 46 29 169 47 26 167 48 120 166 49 122 171 50 123 167 51 120 171 52 123 170 53 121 166 54 30 164 55 24 168 56 27 166 57 30 168 58 27 171 59 31</p></triangles>
      </mesh>
    </geometry>
  </library_geometries>
  <library_visual_scenes>
    <visual_scene id="aws_robomaker_warehouse_GroundB_01_visual" name="aws_robomaker_warehouse_GroundB_01_visual">
      <node name="aws_robomaker_warehouse_GroundB_01_visual" id="aws_robomaker_warehouse_GroundB_01_visual" layer="zhenghe" sid="aws_robomaker_warehouse_GroundB_01_visual"><matrix sid="matrix">1.000000 0.000000 0.000000 0.000000 0.000000 1.000000 0.000000 0.000000 0.000000 0.000000 1.000000 0.000000 0.000000 0.000000 0.000000 1.000000</matrix><instance_geometry url="#aws_robomaker_warehouse_GroundB_01_visual-lib"><bind_material><technique_common><instance_material symbol="Material #946568" target="#Material #946568"/><instance_material symbol="Material #946569" target="#Material #946569"/></technique_common></bind_material></instance_geometry><extra><technique profile="FCOLLADA"><visibility>1.000000</visibility></technique></extra></node>
      <extra><technique profile="MAX3D"><frame_rate>30.000000</frame_rate></technique><technique profile="FCOLLADA"><start_time>0.000000</start_time><end_time>3.333333</end_time></technique></extra>
    </visual_scene>
  </library_visual_scenes>
  <scene>
    <instance_visual_scene url="#aws_robomaker_warehouse_GroundB_01_visual"></instance_visual_scene>
  </scene>
</COLLADA>
