<?xml version="1.0" encoding="utf-8"?>
<COLLADA xmlns="http://www.collada.org/2005/11/COLLADASchema" version="1.4.1">
  <asset><contributor><author></author><authoring_tool>FBX COLLADA exporter</authoring_tool><comments></comments></contributor><created>2019-05-15T08:15:48Z</created><keywords></keywords><modified>2019-05-15T08:15:48Z</modified><revision></revision><subject></subject><title></title><unit meter="0.010000" name="centimeter"></unit><up_axis>Z_UP</up_axis></asset>
  <library_images>
    <image id="Map #1123124521-image" name="Map #1123124521"><init_from>../materials/textures/aws_robomaker_warehouse_GroundB_02.png</init_from></image>
  </library_images>
  <library_materials>
    <material id="Material #946568" name="Material #946568">
      <instance_effect url="#Material #946568-fx"/>
    </material>
    <material id="Material #946569" name="Material #946569">
      <instance_effect url="#Material #946569-fx"/>
    </material>
  </library_materials>
  <library_effects>
    <effect id="Material #946568-fx" name="Material #946568">
      <profile_COMMON>
        <technique sid="standard">
          <phong>
            <emission>
              <color sid="emission">0.000000  0.000000 0.000000 1.000000</color>
            </emission>
            <ambient>
              <color sid="ambient">0.588000  0.588000 0.588000 1.000000</color>
            </ambient>
            <diffuse>
              <color sid="diffuse">0.813810 0.811311 0.804215 1.000000</color>
            </diffuse>
            <specular>
              <color sid="specular">0.000000  0.000000 0.000000 1.000000</color>
            </specular>
            <shininess>
              <float sid="shininess">2.000000</float>
            </shininess>
            <reflective>
              <color sid="reflective">0.000000  0.000000 0.000000 1.000000</color>
            </reflective>
            <reflectivity>
              <float sid="reflectivity">1.000000</float>
            </reflectivity>
            <transparent opaque="RGB_ZERO">
              <color sid="transparent">1.000000  1.000000 1.000000 1.000000</color>
            </transparent>
            <transparency>
              <float sid="transparency">0.000000</float>
            </transparency>
          </phong>
        </technique>
      </profile_COMMON>
    </effect>
    <effect id="Material #946569-fx" name="Material #946569">
      <profile_COMMON>
        <technique sid="standard">
          <phong>
            <emission>
              <color sid="emission">0.000000  0.000000 0.000000 1.000000</color>
            </emission>
            <ambient>
              <color sid="ambient">0.588000  0.588000 0.588000 1.000000</color>
            </ambient>
            <diffuse>
              <texture texture="Map #1123124521-image" texcoord="CHANNEL0">
                <extra>
                  <technique profile="MAYA">
                    <wrapU sid="wrapU0">TRUE</wrapU>
                    <wrapV sid="wrapV0">TRUE</wrapV>
                    <blend_mode>ADD</blend_mode>
                  </technique>
                </extra>
              </texture>
            </diffuse>
            <specular>
              <color sid="specular">0.000000  0.000000 0.000000 1.000000</color>
            </specular>
            <shininess>
              <float sid="shininess">2.000000</float>
            </shininess>
            <reflective>
              <color sid="reflective">0.000000  0.000000 0.000000 1.000000</color>
            </reflective>
            <reflectivity>
              <float sid="reflectivity">1.000000</float>
            </reflectivity>
            <transparent opaque="RGB_ZERO">
              <color sid="transparent">1.000000  1.000000 1.000000 1.000000</color>
            </transparent>
            <transparency>
              <float sid="transparency">0.000000</float>
            </transparency>
          </phong>
        </technique>
      </profile_COMMON>
    </effect>
  </library_effects>
  <library_geometries>
    <geometry id="aws_robomaker_warehouse_GroundB_01_visual-lib" name="aws_robomaker_warehouse_GroundB_01_visualMesh">
      <mesh>
        <source id="aws_robomaker_warehouse_GroundB_01_visual-POSITION">
          <float_array id="aws_robomaker_warehouse_GroundB_01_visual-POSITION-array" count="852">
-2104.462087 -2090.666504 -0.000123
2104.462087 -2090.666504 -0.000124
-2104.462087 -2090.666504 12.431540
2104.462087 -2090.666504 12.431539
-2104.462087 2090.666504 0.000128
2104.462087 2090.666504 0.000129
-2104.462087 2090.666260 12.431791
2104.462087 2090.666260 12.431792
-768.945000 -475.496582 12.445392
134.227250 -475.496582 12.445392
-768.945000 124.503410 12.445440
134.227250 124.503410 12.445440
-747.183383 -461.039794 12.445393
112.465637 -461.039794 12.445393
112.465637 110.046624 12.445439
-747.183383 110.046624 12.445439
-768.945000 -1764.310546 12.445316
134.227250 -1764.310546 12.445316
-768.945000 -1164.310546 12.445366
134.227250 -1164.310546 12.445366
-747.183383 -1749.853760 12.445318
112.465637 -1749.853760 12.445318
112.465637 -1178.767334 12.445364
-747.183383 -1178.767334 12.445364
-768.945000 -1119.903564 12.445369
134.227250 -1119.903564 12.445369
-768.945000 -519.903564 12.445388
134.227250 -519.903564 12.445388
-747.183383 -1105.446778 12.445371
112.465637 -1105.446778 12.445371
112.465637 -534.360352 12.445387
-747.183383 -534.360352 12.445387
-768.945000 168.910400 12.445444
134.227250 168.910400 12.445444
-768.945000 768.910400 12.445462
134.227250 768.910400 12.445462
-747.183383 183.367188 12.445445
112.465637 183.367188 12.445445
112.465637 754.453614 12.445461
-747.183383 754.453614 12.445461
-768.945000 813.317382 12.445527
134.227250 813.317382 12.445527
-768.945000 1413.317382 12.445576
134.227250 1413.317382 12.445576
-747.183383 827.774170 12.445528
112.465637 827.774170 12.445528
112.465637 1398.860596 12.445575
-747.183383 1398.860596 12.445575
461.168638 -2087.436036 12.445252
488.583532 -2087.436036 12.445252
461.168638 2093.614746 12.445501
488.583532 2093.614746 12.445501
488.583532 -1858.373242 12.445269
461.168638 -1858.373242 12.445269
488.583532 -1925.192920 12.445258
461.168638 -1925.192920 12.445258
488.583532 -1942.904834 12.445259
461.168638 -1942.904834 12.445259
-1210.903594 -1925.192920 12.445258
-1210.903594 -1942.904834 12.445259
488.583532 -1841.244824 12.445268
461.168638 -1841.244824 12.445268
-1081.387706 -1858.373242 12.445269
-1081.387706 -1841.244824 12.445268
-1056.747908 -1858.373242 12.445269
-1056.747908 -1841.244824 12.445268
-1081.387706 2093.614746 12.445501
-1056.747908 2093.614746 12.445501
-1185.674601 -1925.192920 12.445258
-1185.674601 -1942.904834 12.445259
-1210.903594 2093.614746 12.445501
-1185.674601 2093.614746 12.445501
-1210.903594 1809.355518 12.445482
-1185.674601 1809.355518 12.445482
-1185.674601 1877.561108 12.445491
-1210.903594 1877.561108 12.445491
-1210.903778 1793.560596 12.445481
-1185.674601 1793.560718 12.445481
-2065.612193 1809.355518 12.445482
-2065.612193 1793.560596 12.445481
-1185.674601 1893.898632 12.445493
-1210.903594 1893.898632 12.445493
-2077.215692 1877.561108 12.445491
-2077.215692 1893.898632 12.445493
586.637453 -2088.264648 12.445252
614.052346 -2088.264648 12.445252
586.637453 399.825244 12.445397
614.052346 399.825244 12.445397
614.052346 381.259326 12.445396
586.637453 381.259326 12.445396
2110.375005 399.825244 12.445397
2110.375005 381.259326 12.445396
586.637453 471.366162 12.445407
614.052346 471.366162 12.445407
614.052346 2093.614746 12.445501
586.637453 2093.614746 12.445501
614.052346 488.927198 12.445409
586.637453 488.927198 12.445409
2110.375005 471.366162 12.445407
2110.375005 488.927198 12.445409
-1970.600000 -1764.300000 12.450000
-1370.600000 -1764.300000 12.450000
-1970.600000 -1164.300000 12.450000
-1370.600000 -1164.300000 12.450000
-1948.840000 -1749.840000 12.450000
-1392.360000 -1749.840000 12.450000
-1392.360000 -1178.760000 12.450000
-1948.840000 -1178.760000 12.450000
-1970.600000 -1119.900000 12.450000
-1370.600000 -1119.900000 12.450000
-1970.600000 -519.900000 12.450000
-1370.600000 -519.900000 12.450000
-1948.840000 -1105.440000 12.450000
-1392.360000 -1105.440000 12.450000
-1392.360000 -534.360000 12.450000
-1948.840000 -534.360000 12.450000
-1970.600000 -475.500000 12.450000
-1370.600000 -475.500000 12.450000
-1970.600000 124.500000 12.450000
-1370.600000 124.500000 12.450000
-1948.840000 -461.040000 12.450000
-1392.360000 -461.040000 12.450000
-1392.360000 110.040000 12.450000
-1948.840000 110.040000 12.450000
-1970.600000 168.900000 12.450000
-1370.600000 168.900000 12.450000
-1970.600000 768.900000 12.450000
-1370.600000 768.900000 12.450000
-1948.840000 183.360000 12.450000
-1392.360000 183.360000 12.450000
-1392.360000 754.440000 12.450000
-1948.840000 754.440000 12.450000
-1970.600000 813.300000 12.450000
-1370.600000 813.300000 12.450000
-1970.600000 1413.300000 12.450000
-1370.600000 1413.300000 12.450000
-1948.840000 827.760000 12.450000
-1392.360000 827.760000 12.450000
-1392.360000 1398.840000 12.450000
-1948.840000 1398.840000 12.450000
918.200000 -1764.300000 12.450000
1821.200000 -1764.300000 12.450000
918.200000 -1164.300000 12.450000
1821.200000 -1164.300000 12.450000
939.960000 -1749.840000 12.450000
1799.440000 -1749.840000 12.450000
1799.440000 -1178.760000 12.450000
939.960000 -1178.760000 12.450000
918.200000 -1119.900000 12.450000
1821.200000 -1119.900000 12.450000
918.200000 -519.900000 12.450000
1821.200000 -519.900000 12.450000
939.960000 -1105.440000 12.450000
1799.440000 -1105.440000 12.450000
1799.440000 -534.360000 12.450000
939.960000 -534.360000 12.450000
918.200000 -475.500000 12.450000
1821.200000 -475.500000 12.450000
918.200000 124.500000 12.450000
1821.200000 124.500000 12.450000
939.960000 -461.040000 12.450000
1799.440000 -461.040000 12.450000
1799.440000 110.040000 12.450000
939.960000 110.040000 12.450000
918.200000 813.300000 12.450000
1821.200000 813.300000 12.450000
918.200000 1413.300000 12.450000
1821.200000 1413.300000 12.450000
939.960000 827.760000 12.450000
1799.440000 827.760000 12.450000
1799.440000 1398.840000 12.450000
939.960000 1398.840000 12.450000
-1025.400000 -1810.962500 12.450000
431.150000 -1810.962500 12.450000
-1025.400000 -1077.450000 12.450000
431.150000 -1077.450000 12.450000
-1003.640000 -1796.502500 12.450000
409.390000 -1796.502500 12.450000
409.390000 -1091.910000 12.450000
-1003.640000 -1091.910000 12.450000
-1025.400000 -1033.050000 12.450000
431.150000 -1033.050000 12.450000
-1025.400000 -299.537500 12.450000
431.150000 -299.537500 12.450000
-1003.640000 -1018.590000 12.450000
409.390000 -1018.590000 12.450000
409.390000 -313.997500 12.450000
-1003.640000 -313.997500 12.450000
-1025.400000 -255.137500 12.450000
431.150000 -255.137500 12.450000
-1025.400000 478.375000 12.450000
431.150000 478.375000 12.450000
-1003.640000 -240.677500 12.450000
409.390000 -240.677500 12.450000
409.390000 463.915000 12.450000
-1003.640000 463.915000 12.450000
-1025.400000 522.775000 12.450000
431.150000 522.775000 12.450000
-1025.400000 1256.287500 12.450000
431.150000 1256.287500 12.450000
-1003.640000 537.235000 12.450000
409.390000 537.235000 12.450000
409.390000 1241.827500 12.450000
-1003.640000 1241.827500 12.450000
-1025.400000 1300.687500 12.450000
431.150000 1300.687500 12.450000
-1025.400000 2034.200000 12.450000
431.150000 2034.200000 12.450000
-1003.640000 1315.147500 12.450000
409.390000 1315.147500 12.450000
409.390000 2019.740000 12.450000
-1003.640000 2019.740000 12.450000
-2035.600000 -2034.200000 12.450000
-1242.000000 -2034.200000 12.450000
-2035.600000 -1310.362500 12.450000
-1242.000000 -1310.362500 12.450000
-2013.840000 -2019.740000 12.450000
-1263.760000 -2019.740000 12.450000
-1263.760000 -1324.822500 12.450000
-2013.840000 -1324.822500 12.450000
-2035.600000 -1265.962500 12.450000
-1242.000000 -1265.962500 12.450000
-2035.600000 -542.125000 12.450000
-1242.000000 -542.125000 12.450000
-2013.840000 -1251.502500 12.450000
-1263.760000 -1251.502500 12.450000
-1263.760000 -556.585000 12.450000
-2013.840000 -556.585000 12.450000
-2035.600000 -497.725000 12.450000
-1242.000000 -497.725000 12.450000
-2035.600000 226.112500 12.450000
-1242.000000 226.112500 12.450000
-2013.840000 -483.265000 12.450000
-1263.760000 -483.265000 12.450000
-1263.760000 211.652500 12.450000
-2013.840000 211.652500 12.450000
-2035.600000 270.512500 12.450000
-1242.000000 270.512500 12.450000
-2035.600000 994.350000 12.450000
-1242.000000 994.350000 12.450000
-2013.840000 284.972500 12.450000
-1263.760000 284.972500 12.450000
-1263.760000 979.890000 12.450000
-2013.840000 979.890000 12.450000
-2035.600000 1038.750000 12.450000
-1242.000000 1038.750000 12.450000
-2035.600000 1762.587500 12.450000
-1242.000000 1762.587500 12.450000
-2013.840000 1053.210000 12.450000
-1263.760000 1053.210000 12.450000
-1263.760000 1748.127500 12.450000
-2013.840000 1748.127500 12.450000
644.050000 -2034.200000 12.450000
2032.700000 -2034.200000 12.450000
644.050000 -1268.508333 12.450000
2032.700000 -1268.508333 12.450000
665.810000 -2019.740000 12.450000
2010.940000 -2019.740000 12.450000
2010.940000 -1282.968333 12.450000
665.810000 -1282.968333 12.450000
644.050000 -1224.108333 12.450000
2032.700000 -1224.108333 12.450000
644.050000 -458.416667 12.450000
2032.700000 -458.416667 12.450000
665.810000 -1209.648333 12.450000
2010.940000 -1209.648333 12.450000
2010.940000 -472.876667 12.450000
665.810000 -472.876667 12.450000
644.050000 -414.016667 12.450000
2032.700000 -414.016667 12.450000
644.050000 351.675000 12.450000
2032.700000 351.675000 12.450000
665.810000 -399.556667 12.450000
2010.940000 -399.556667 12.450000
2010.940000 337.215000 12.450000
665.810000 337.215000 12.450000
644.050000 893.766667 12.450000
2032.700000 893.766667 12.450000
644.050000 1659.458333 12.450000
2032.700000 1659.458333 12.450000
665.810000 908.226667 12.450000
2010.940000 908.226667 12.450000
2010.940000 1644.998333 12.450000
665.810000 1644.998333 12.450000
</float_array>
          <technique_common>
            <accessor source="#aws_robomaker_warehouse_GroundB_01_visual-POSITION-array" count="284" stride="3">
              <param name="X" type="float"/>
              <param name="Y" type="float"/>
              <param name="Z" type="float"/>
            </accessor>
          </technique_common>
        </source>
        <source id="aws_robomaker_warehouse_GroundB_01_visual-Normal0">
          <float_array id="aws_robomaker_warehouse_GroundB_01_visual-Normal0-array" count="846">
0.000000 -1.000000 0.000000
0.000000 -1.000000 0.000000
0.000000 -1.000000 0.000000
0.000000 -1.000000 0.000000
0.000000 -1.000000 0.000000
0.000000 -1.000000 0.000000
-0.000000 1.000000 0.000010
-0.000000 1.000000 0.000010
-0.000000 1.000000 0.000010
-0.000000 1.000000 0.000010
-0.000000 1.000000 0.000010
-0.000000 1.000000 0.000010
0.000000 0.000000 -1.000000
0.000000 0.000000 -1.000000
0.000000 0.000000 -1.000000
0.000000 0.000000 -1.000000
0.000000 0.000000 -1.000000
0.000000 0.000000 -1.000000
1.000000 0.000000 0.000000
1.000000 0.000000 0.000000
1.000000 0.000000 0.000000
1.000000 0.000000 0.000000
1.000000 0.000000 0.000000
1.000000 0.000000 0.000000
0.000000 -0.000000 1.000000
0.000000 -0.000000 1.000000
0.000000 -0.000000 1.000000
0.000000 -0.000000 1.000000
0.000000 -0.000000 1.000000
0.000000 -0.000000 1.000000
-1.000000 0.000000 0.000000
-1.000000 0.000000 0.000000
-1.000000 0.000000 0.000000
-1.000000 0.000000 0.000000
-1.000000 0.000000 0.000000
-1.000000 0.000000 0.000000
0.000000 -0.000000 1.000000
0.000000 -0.000000 1.000000
0.000000 -0.000000 1.000000
0.000000 -0.000000 1.000000
0.000000 -0.000000 1.000000
0.000000 -0.000000 1.000000
-0.000000 -0.000000 1.000000
-0.000000 -0.000000 1.000000
-0.000000 -0.000000 1.000000
-0.000000 -0.000000 1.000000
-0.000000 -0.000000 1.000000
-0.000000 -0.000000 1.000000
0.000000 -0.000000 1.000000
0.000000 -0.000000 1.000000
0.000000 -0.000000 1.000000
0.000000 -0.000000 1.000000
0.000000 -0.000000 1.000000
0.000000 -0.000000 1.000000
0.000000 -0.000000 1.000000
0.000000 -0.000000 1.000000
0.000000 -0.000000 1.000000
0.000000 -0.000000 1.000000
0.000000 -0.000000 1.000000
0.000000 -0.000000 1.000000
0.000000 -0.000000 1.000000
0.000000 -0.000000 1.000000
0.000000 -0.000000 1.000000
0.000000 -0.000000 1.000000
0.000000 -0.000000 1.000000
0.000000 -0.000000 1.000000
0.000000 -0.000000 1.000000
0.000000 -0.000000 1.000000
0.000000 -0.000000 1.000000
0.000000 -0.000000 1.000000
0.000000 -0.000000 1.000000
0.000000 -0.000000 1.000000
0.000000 -0.000000 1.000000
0.000000 -0.000000 1.000000
0.000000 -0.000000 1.000000
0.000000 -0.000000 1.000000
0.000000 -0.000000 1.000000
0.000000 -0.000000 1.000000
0.000000 -0.000000 1.000000
0.000000 -0.000000 1.000000
0.000000 -0.000000 1.000000
0.000000 -0.000000 1.000000
0.000000 -0.000000 1.000000
0.000000 -0.000000 1.000000
0.000000 -0.000000 1.000000
0.000000 -0.000000 1.000000
0.000000 -0.000000 1.000000
0.000000 -0.000000 1.000000
0.000000 -0.000000 1.000000
0.000000 -0.000000 1.000000
0.000000 -0.000000 1.000000
0.000000 -0.000000 1.000000
0.000000 -0.000000 1.000000
0.000000 -0.000000 1.000000
0.000000 -0.000000 1.000000
0.000000 -0.000000 1.000000
0.000000 -0.000000 1.000000
0.000000 -0.000000 1.000000
0.000000 -0.000000 1.000000
0.000000 -0.000000 1.000000
0.000000 -0.000000 1.000000
0.000000 -0.000000 1.000000
-0.000000 -0.000000 1.000000
-0.000000 -0.000000 1.000000
-0.000000 -0.000000 1.000000
-0.000000 -0.000000 1.000000
-0.000000 -0.000000 1.000000
-0.000000 -0.000000 1.000000
0.000000 -0.000000 1.000000
0.000000 -0.000000 1.000000
0.000000 -0.000000 1.000000
0.000000 -0.000000 1.000000
0.000000 -0.000000 1.000000
0.000000 -0.000000 1.000000
0.000000 -0.000000 1.000000
0.000000 -0.000000 1.000000
0.000000 -0.000000 1.000000
0.000000 -0.000000 1.000000
0.000000 -0.000000 1.000000
0.000000 -0.000000 1.000000
0.000000 -0.000000 1.000000
0.000000 -0.000000 1.000000
0.000000 -0.000000 1.000000
0.000000 -0.000000 1.000000
0.000000 -0.000000 1.000000
0.000000 -0.000000 1.000000
0.000000 -0.000000 1.000000
0.000000 -0.000000 1.000000
0.000000 -0.000000 1.000000
0.000000 -0.000000 1.000000
0.000000 -0.000000 1.000000
0.000000 -0.000000 1.000000
0.000000 -0.000000 1.000000
0.000000 -0.000000 1.000000
0.000000 -0.000000 1.000000
0.000000 -0.000000 1.000000
0.000000 -0.000000 1.000000
0.000000 -0.000000 1.000000
-0.000000 -0.000000 1.000000
-0.000000 -0.000000 1.000000
-0.000000 -0.000000 1.000000
-0.000000 -0.000000 1.000000
-0.000000 -0.000000 1.000000
-0.000000 -0.000000 1.000000
0.000000 -0.000000 1.000000
0.000000 -0.000000 1.000000
0.000000 -0.000000 1.000000
0.000000 -0.000000 1.000000
0.000000 -0.000000 1.000000
0.000000 -0.000000 1.000000
-0.000000 -0.000000 1.000000
-0.000000 -0.000000 1.000000
-0.000000 -0.000000 1.000000
-0.000000 -0.000000 1.000000
-0.000000 -0.000000 1.000000
-0.000000 -0.000000 1.000000
0.000000 -0.000000 1.000000
0.000000 -0.000000 1.000000
0.000000 -0.000000 1.000000
0.000000 -0.000000 1.000000
0.000000 -0.000000 1.000000
0.000000 -0.000000 1.000000
0.000000 -0.000000 1.000000
0.000000 0.000000 1.000000
0.000000 -0.000000 1.000000
0.000000 -0.000000 1.000000
0.000000 0.000000 1.000000
0.000000 0.000000 1.000000
0.000000 0.000000 1.000000
0.000000 -0.000000 1.000000
0.000000 0.000000 1.000000
0.000000 0.000000 1.000000
0.000000 -0.000000 1.000000
0.000000 -0.000000 1.000000
0.000000 0.000000 1.000000
0.000000 0.000000 1.000000
0.000000 0.000000 1.000000
0.000000 0.000000 1.000000
0.000000 0.000000 1.000000
0.000000 0.000000 1.000000
0.000000 -0.000000 1.000000
0.000000 -0.000000 1.000000
0.000000 -0.000000 1.000000
0.000000 -0.000000 1.000000
0.000000 -0.000000 1.000000
0.000000 -0.000000 1.000000
0.000000 0.000000 1.000000
0.000000 0.000000 1.000000
0.000000 0.000000 1.000000
0.000000 0.000000 1.000000
0.000000 0.000000 1.000000
0.000000 0.000000 1.000000
0.000000 0.000000 1.000000
0.000000 0.000000 1.000000
0.000000 0.000000 1.000000
0.000000 0.000000 1.000000
0.000000 0.000000 1.000000
0.000000 0.000000 1.000000
0.000000 -0.000000 1.000000
0.000000 -0.000000 1.000000
0.000000 -0.000000 1.000000
0.000000 -0.000000 1.000000
0.000000 -0.000000 1.000000
0.000000 -0.000000 1.000000
0.000000 0.000000 1.000000
0.000000 0.000000 1.000000
0.000000 0.000000 1.000000
0.000000 0.000000 1.000000
0.000000 0.000000 1.000000
0.000000 0.000000 1.000000
0.000000 -0.000000 1.000000
0.000000 -0.000000 1.000000
0.000000 -0.000000 1.000000
0.000000 -0.000000 1.000000
0.000000 -0.000000 1.000000
0.000000 -0.000000 1.000000
0.000000 -0.000000 1.000000
0.000000 -0.000000 1.000000
0.000000 -0.000000 1.000000
0.000000 -0.000000 1.000000
0.000000 -0.000000 1.000000
0.000000 -0.000000 1.000000
0.000000 -0.000000 1.000000
0.000000 -0.000000 1.000000
0.000000 -0.000000 1.000000
0.000000 -0.000000 1.000000
0.000000 -0.000000 1.000000
0.000000 -0.000000 1.000000
0.000000 -0.000000 1.000000
0.000000 -0.000000 1.000000
0.000000 -0.000000 1.000000
0.000000 -0.000000 1.000000
0.000000 -0.000000 1.000000
0.000000 -0.000000 1.000000
0.000000 -0.000000 1.000000
0.000000 -0.000000 1.000000
0.000000 -0.000000 1.000000
0.000000 -0.000000 1.000000
0.000000 -0.000000 1.000000
0.000000 -0.000000 1.000000
0.000000 -0.000000 1.000000
0.000000 -0.000000 1.000000
0.000000 -0.000000 1.000000
0.000000 -0.000000 1.000000
0.000000 -0.000000 1.000000
0.000000 -0.000000 1.000000
0.000000 -0.000000 1.000000
0.000000 -0.000000 1.000000
0.000000 -0.000000 1.000000
0.000000 -0.000000 1.000000
0.000000 -0.000000 1.000000
0.000000 -0.000000 1.000000
0.000000 -0.000000 1.000000
0.000000 -0.000000 1.000000
0.000000 -0.000000 1.000000
0.000000 -0.000000 1.000000
0.000000 -0.000000 1.000000
0.000000 -0.000000 1.000000
0.000000 -0.000000 1.000000
0.000000 -0.000000 1.000000
0.000000 -0.000000 1.000000
0.000000 -0.000000 1.000000
0.000000 -0.000000 1.000000
0.000000 -0.000000 1.000000
0.000000 -0.000000 1.000000
0.000000 -0.000000 1.000000
0.000000 -0.000000 1.000000
0.000000 -0.000000 1.000000
0.000000 -0.000000 1.000000
0.000000 -0.000000 1.000000
0.000000 -0.000000 1.000000
0.000000 -0.000000 1.000000
0.000000 -0.000000 1.000000
0.000000 -0.000000 1.000000
0.000000 -0.000000 1.000000
0.000000 -0.000000 1.000000
0.000000 -0.000000 1.000000
0.000000 -0.000000 1.000000
0.000000 -0.000000 1.000000
0.000000 -0.000000 1.000000
0.000000 -0.000000 1.000000
0.000000 -0.000000 1.000000
</float_array>
          <technique_common>
            <accessor source="#aws_robomaker_warehouse_GroundB_01_visual-Normal0-array" count="282" stride="3">
              <param name="X" type="float"/>
              <param name="Y" type="float"/>
              <param name="Z" type="float"/>
            </accessor>
          </technique_common>
        </source>
        <source id="aws_robomaker_warehouse_GroundB_01_visual-UV0">
          <float_array id="aws_robomaker_warehouse_GroundB_01_visual-UV0-array" count="328">
9.693788 5.101356
9.693788 9.692530
9.652954 9.692530
9.652954 5.101356
9.567460 5.101356
9.608294 5.101356
9.608294 9.692530
9.567460 9.692530
2.444684 5.144108
9.310412 5.144108
9.310412 9.735280
2.444684 9.735280
2.444682 9.906856
9.310412 9.906856
9.310410 9.947690
2.444682 9.947690
2.359188 0.228180
9.224918 0.228182
9.224916 4.819356
2.359188 4.819356
2.828926 5.480492
2.828926 -1.385238
2.869750 -1.385238
2.869750 5.480492
-1.691137 1.355757
-1.976730 0.985989
-1.933884 0.943143
-1.733945 1.312949
-1.976730 -0.792248
-1.933884 -0.749402
-1.691137 -0.420905
-1.733945 -0.378097
-1.799502 -0.426135
-1.798186 -0.952645
-1.755340 -0.995491
-1.842348 -0.468980
-1.798186 -2.730882
-1.755340 -2.688036
-1.799502 -2.204372
-1.842348 -2.161526
-1.799502 1.365183
-1.798186 0.838673
-1.755340 0.795827
-1.842348 1.322337
-1.798186 -0.939565
-1.755340 -0.896719
-1.799502 -0.413054
-1.842348 -0.370208
-1.730909 -0.433973
-1.875866 -0.575192
-1.833020 -0.618038
-1.773717 -0.476781
-1.875866 -2.353429
-1.833020 -2.310584
-1.730909 -2.210634
-1.773717 -2.167826
-1.958919 2.451030
-1.717841 -0.433973
-1.675033 -0.476781
-2.001765 2.408185
-1.717841 -2.210634
-1.675033 -2.167826
-1.958919 0.672793
-2.001765 0.715639
0.521328 0.470354
0.521328 0.474995
0.410392 1.020932
0.410392 1.016567
0.415033 1.016567
-1.461452 0.891229
0.495226 0.474995
-1.461452 0.864380
0.495226 0.470354
-1.461452 0.858776
-1.461452 0.864380
-1.461452 0.858776
0.415033 1.020932
-1.461452 0.896788
-1.461452 0.896788
-1.461452 0.891229
-1.461452 0.891229
-1.461452 0.896788
-1.461452 0.896788
-1.461452 0.896788
-1.461452 0.864380
-1.461452 0.858776
-1.461452 0.864380
-1.461452 0.864380
-1.461452 0.864380
-1.461452 0.864380
-1.461452 0.864380
-1.461452 0.864380
-1.461452 0.864380
-1.461452 0.864380
-1.461452 0.864380
-1.461452 0.864380
-1.461452 0.864380
-1.461452 0.864380
-1.461452 0.864380
-1.461452 0.864380
0.436771 0.036056
0.441413 0.036056
0.422756 0.026574
0.422756 0.021932
0.418024 0.026574
0.418024 0.021932
0.422756 0.269288
0.418024 0.269288
-1.767357 1.965086
-1.767357 0.186848
0.425656 0.029564
0.430298 0.029564
0.430298 0.034040
0.425656 0.034040
0.430297 0.431580
0.425656 0.431580
0.444403 0.403750
0.448879 0.403750
-1.724511 0.229694
-1.724511 1.922239
-1.855502 0.428975
-1.898310 0.471783
-1.855502 2.205637
-1.898310 2.162829
-1.842433 0.376135
-1.842433 -1.400526
-1.799625 -1.357718
-1.799626 0.333327
-1.743367 -2.377502
-1.786175 -2.334694
-1.743367 -0.600840
-1.786175 -0.643649
-1.795829 2.663701
-1.795829 0.885463
-1.752983 0.928309
-1.752983 2.620854
-1.855502 -1.400526
-1.898310 -1.357718
-1.855502 0.376135
-1.898310 0.333327
-1.842434 2.165865
-1.842433 0.389204
-1.799626 0.432011
-1.799626 2.123057
-1.743367 -0.587772
-1.786175 -0.544964
-1.743367 1.188889
-1.786175 1.146081
-1.842434 3.955595
-1.842434 2.178934
-1.799626 2.221741
-1.799626 3.912786
-1.743367 1.201958
-1.786175 1.244766
-1.743367 2.978619
-1.786175 2.935811
0.410392 0.024476
0.415033 0.024476
0.490712 0.474995
0.490712 0.470354
0.441413 0.654006
0.436771 0.654006
0.444403 0.646464
0.448879 0.646464
</float_array>
          <technique_common>
            <accessor source="#aws_robomaker_warehouse_GroundB_01_visual-UV0-array" count="164" stride="2">
              <param name="S" type="float"/>
              <param name="T" type="float"/>
            </accessor>
          </technique_common>
        </source>
        <vertices id="aws_robomaker_warehouse_GroundB_01_visual-VERTEX">
          <input semantic="POSITION" source="#aws_robomaker_warehouse_GroundB_01_visual-POSITION"/>
        </vertices>
        <triangles count="12" material="Material #946568"><input semantic="VERTEX" offset="0" source="#aws_robomaker_warehouse_GroundB_01_visual-VERTEX"/><input semantic="NORMAL" offset="1" source="#aws_robomaker_warehouse_GroundB_01_visual-Normal0"/><input semantic="TEXCOORD" offset="2" set="0" source="#aws_robomaker_warehouse_GroundB_01_visual-UV0"/><p> 3 0 2 2 1 3 0 2 0 3 3 2 0 4 0 1 5 1 6 6 5 5 7 7 4 8 4 5 9 7 6 10 5 7 11 6 1 12 11 0 13 8 5 14 10 0 15 8 4 16 9 5 17 10 7 18 14 3 19 15 1 20 12 7 21 14 1 22 12 5 23 13 6 24 18 3 25 16 7 26 17 3 27 16 6 28 18 2 29 19 6 30 21 0 31 23 2 32 20 0 33 23 6 34 21 4 35 22</p></triangles>
        <triangles count="112" material="Material #946569"><input semantic="VERTEX" offset="0" source="#aws_robomaker_warehouse_GroundB_01_visual-VERTEX"/><input semantic="NORMAL" offset="1" source="#aws_robomaker_warehouse_GroundB_01_visual-Normal0"/><input semantic="TEXCOORD" offset="2" set="0" source="#aws_robomaker_warehouse_GroundB_01_visual-UV0"/><p>172 36 108 173 37 109 177 38 118 172 39 108 177 40 118 176 41 119 173 42 25 175 43 28 178 44 29 173 45 25 178 46 29 177 47 26 175 48 120 174 49 122 179 50 123 175 51 120 179 52 123 178 53 121 174 54 30 172 55 24 176 56 27 174 57 30 176 58 27 179 59 31 180 36 108 181 37 109 185 38 118 180 39 108 185 40 118 184 41 119 181 42 25 183 43 28 186 44 29 181 45 25 186 46 29 185 47 26 183 48 120 182 49 122 187 50 123 183 51 120 187 52 123 186 53 121 182 54 30 180 55 24 184 56 27 182 57 30 184 58 27 187 59 31 188 36 108 189 37 109 193 38 118 188 39 108 193 40 118 192 41 119 189 42 25 191 43 28 194 44 29 189 45 25 194 46 29 193 47 26 191 48 120 190 49 122 195 50 123 191 51 120 195 52 123 194 53 121 190 54 30 188 55 24 192 56 27 190 57 30 192 58 27 195 59 31 196 36 108 197 37 109 201 38 118 196 39 108 201 40 118 200 41 119 197 42 25 199 43 28 202 44 29 197 45 25 202 46 29 201 47 26 199 48 120 198 49 122 203 50 123 199 51 120 203 52 123 202 53 121 198 54 30 196 55 24 200 56 27 198 57 30 200 58 27 203 59 31 204 36 108 205 37 109 209 38 118 204 39 108 209 40 118 208 41 119 205 42 25 207 43 28 210 44 29 205 45 25 210 46 29 209 47 26 207 48 120 206 49 122 211 50 123 207 51 120 211 52 123 210 53 121 206 54 30 204 55 24 208 56 27 206 57 30 208 58 27 211 59 31 212 36 108 213 37 109 217 38 118 212 39 108 217 40 118 216 41 119 213 42 25 215 43 28 218 44 29 213 45 25 218 46 29 217 47 26 215 48 120 214 49 122 219 50 123 215 51 120 219 52 123 218 53 121 214 54 30 212 55 24 216 56 27 214 57 30 216 58 27 219 59 31 220 36 108 221 37 109 225 38 118 220 39 108 225 40 118 224 41 119 221 42 25 223 43 28 226 44 29 221 45 25 226 46 29 225 47 26 223 48 120 222 49 122 227 50 123 223 51 120 227 52 123 226 53 121 222 54 30 220 55 24 224 56 27 222 57 30 224 58 27 227 59 31 228 36 108 229 37 109 233 38 118 228 39 108 233 40 118 232 41 119 229 42 25 231 43 28 234 44 29 229 45 25 234 46 29 233 47 26 231 48 120 230 49 122 235 50 123 231 51 120 235 52 123 234 53 121 230 54 30 228 55 24 232 56 27 230 57 30 232 58 27 235 59 31 236 36 108 237 37 109 241 38 118 236 39 108 241 40 118 240 41 119 237 42 25 239 43 28 242 44 29 237 45 25 242 46 29 241 47 26 239 48 120 238 49 122 243 50 123 239 51 120 243 52 123 242 53 121 238 54 30 236 55 24 240 56 27 238 57 30 240 58 27 243 59 31 244 36 108 245 37 109 249 38 118 244 39 108 249 40 118 248 41 119 245 42 25 247 43 28 250 44 29 245 45 25 250 46 29 249 47 26 247 48 120 246 49 122 251 50 123 247 51 120 251 52 123 250 53 121 246 54 30 244 55 24 248 56 27 246 57 30 248 58 27 251 59 31 252 36 108 253 37 109 257 38 118 252 39 108 257 40 118 256 41 119 253 42 25 255 43 28 258 44 29 253 45 25 258 46 29 257 47 26 255 48 120 254 49 122 259 50 123 255 51 120 259 52 123 258 53 121 254 54 30 252 55 24 256 56 27 254 57 30 256 58 27 259 59 31 260 36 108 261 37 109 265 38 118 260 39 108 265 40 118 264 41 119 261 42 25 263 43 28 266 44 29 261 45 25 266 46 29 265 47 26 263 48 120 262 49 122 267 50 123 263 51 120 267 52 123 266 53 121 262 54 30 260 55 24 264 56 27 262 57 30 264 58 27 267 59 31 268 36 108 269 37 109 273 38 118 268 39 108 273 40 118 272 41 119 269 42 25 271 43 28 274 44 29 269 45 25 274 46 29 273 47 26 271 48 120 270 49 122 275 50 123 271 51 120 275 52 123 274 53 121 270 54 30 268 55 24 272 56 27 270 57 30 272 58 27 275 59 31 276 36 108 277 37 109 281 38 118 276 39 108 281 40 118 280 41 119 277 42 25 279 43 28 282 44 29 277 45 25 282 46 29 281 47 26 279 48 120 278 49 122 283 50 123 279 51 120 283 52 123 282 53 121 278 54 30 276 55 24 280 56 27 278 57 30 280 58 27 283 59 31</p></triangles>
      </mesh>
    </geometry>
  </library_geometries>
  <library_visual_scenes>
    <visual_scene id="aws_robomaker_warehouse_GroundB_01_visual" name="aws_robomaker_warehouse_GroundB_01_visual">
      <node name="aws_robomaker_warehouse_GroundB_01_visual" id="aws_robomaker_warehouse_GroundB_01_visual" layer="zhenghe" sid="aws_robomaker_warehouse_GroundB_01_visual"><matrix sid="matrix">1.000000 0.000000 0.000000 0.000000 0.000000 1.000000 0.000000 0.000000 0.000000 0.000000 1.000000 0.000000 0.000000 0.000000 0.000000 1.000000</matrix><instance_geometry url="#aws_robomaker_warehouse_GroundB_01_visual-lib"><bind_material><technique_common><instance_material symbol="Material #946568" target="#Material #946568"/><instance_material symbol="Material #946569" target="#Material #946569"/></technique_common></bind_material></instance_geometry><extra><technique profile="FCOLLADA"><visibility>1.000000</visibility></technique></extra></node>
      <extra><technique profile="MAX3D"><frame_rate>30.000000</frame_rate></technique><technique profile="FCOLLADA"><start_time>0.000000</start_time><end_time>3.333333</end_time></technique></extra>
    </visual_scene>
  </library_visual_scenes>
  <scene>
    <instance_visual_scene url="#aws_robomaker_warehouse_GroundB_01_visual"></instance_visual_scene>
  </scene>
</COLLADA>
