<?xml version="1.0" encoding="utf-8"?>
<COLLADA xmlns="http://www.collada.org/2005/11/COLLADASchema" version="1.4.1">
  <asset><contributor><authoring_tool>script/make_dock_models.py</authoring_tool></contributor>
    <unit meter="1" name="meter"/><up_axis>Z_UP</up_axis></asset>
  
  <library_effects><effect id="mat-fx"><profile_COMMON><technique sid="common"><lambert><diffuse><color>0.550 0.600 0.660 1</color></diffuse></lambert></technique></profile_COMMON></effect></library_effects>
  <library_materials><material id="mat" name="mat"><instance_effect url="#mat-fx"/></material></library_materials>
  <library_geometries>
    <geometry id="aws_robomaker_warehouse_DockDoor_01_visual-lib" name="aws_robomaker_warehouse_DockDoor_01_visual"><mesh>
      <source id="aws_robomaker_warehouse_DockDoor_01_visual-pos"><float_array id="aws_robomaker_warehouse_DockDoor_01_visual-POSITION-array" count="216">-1.8000 -0.0400 0.0000 1.8000 -0.0400 0.0000 1.8000 -0.0400 4.5000 -1.8000 -0.0400 4.5000 1.8000 0.0400 0.0000 -1.8000 0.0400 0.0000 -1.8000 0.0400 4.5000 1.8000 0.0400 4.5000 -1.8000 0.0400 0.0000 -1.8000 -0.0400 0.0000 -1.8000 -0.0400 4.5000 -1.8000 0.0400 4.5000 1.8000 -0.0400 0.0000 1.8000 0.0400 0.0000 1.8000 0.0400 4.5000 1.8000 -0.0400 4.5000 -1.8000 -0.0400 4.5000 1.8000 -0.0400 4.5000 1.8000 0.0400 4.5000 -1.8000 0.0400 4.5000 -1.8000 0.0400 0.0000 1.8000 0.0400 0.0000 1.8000 -0.0400 0.0000 -1.8000 -0.0400 0.0000 -1.8000 -0.0800 0.0000 -1.7200 -0.0800 0.0000 -1.7200 -0.0800 4.8000 -1.8000 -0.0800 4.8000 -1.7200 0.0800 0.0000 -1.8000 0.0800 0.0000 -1.8000 0.0800 4.8000 -1.7200 0.0800 4.8000 -1.8000 0.0800 0.0000 -1.8000 -0.0800 0.0000 -1.8000 -0.0800 4.8000 -1.8000 0.0800 4.8000 -1.7200 -0.0800 0.0000 -1.7200 0.0800 0.0000 -1.7200 0.0800 4.8000 -1.7200 -0.0800 4.8000 -1.8000 -0.0800 4.8000 -1.7200 -0.0800 4.8000 -1.7200 0.0800 4.8000 -1.8000 0.0800 4.8000 -1.8000 0.0800 0.0000 -1.7200 0.0800 0.0000 -1.7200 -0.0800 0.0000 -1.8000 -0.0800 0.0000 1.7200 -0.0800 0.0000 1.8000 -0.0800 0.0000 1.8000 -0.0800 4.8000 1.7200 -0.0800 4.8000 1.8000 0.0800 0.0000 1.7200 0.0800 0.0000 1.7200 0.0800 4.8000 1.8000 0.0800 4.8000 1.7200 0.0800 0.0000 1.7200 -0.0800 0.0000 1.7200 -0.0800 4.8000 1.7200 0.0800 4.8000 1.8000 -0.0800 0.0000 1.8000 0.0800 0.0000 1.8000 0.0800 4.8000 1.8000 -0.0800 4.8000 1.7200 -0.0800 4.8000 1.8000 -0.0800 4.8000 1.8000 0.0800 4.8000 1.7200 0.0800 4.8000 1.7200 0.0800 0.0000 1.8000 0.0800 0.0000 1.8000 -0.0800 0.0000 1.7200 -0.0800 0.0000</float_array>
        <technique_common><accessor source="#aws_robomaker_warehouse_DockDoor_01_visual-POSITION-array" count="72" stride="3">
          <param name="X" type="float"/><param name="Y" type="float"/><param name="Z" type="float"/></accessor></technique_common></source>
      <source id="aws_robomaker_warehouse_DockDoor_01_visual-nrm"><float_array id="aws_robomaker_warehouse_DockDoor_01_visual-Normal0-array" count="216">0.000 -1.000 0.000 0.000 -1.000 0.000 0.000 -1.000 0.000 0.000 -1.000 0.000 0.000 1.000 0.000 0.000 1.000 0.000 0.000 1.000 0.000 0.000 1.000 0.000 -1.000 0.000 0.000 -1.000 0.000 0.000 -1.000 0.000 0.000 -1.000 0.000 0.000 1.000 0.000 0.000 1.000 0.000 0.000 1.000 0.000 0.000 1.000 0.000 0.000 0.000 0.000 1.000 0.000 0.000 1.000 0.000 0.000 1.000 0.000 0.000 1.000 0.000 0.000 -1.000 0.000 0.000 -1.000 0.000 0.000 -1.000 0.000 0.000 -1.000 0.000 -1.000 0.000 0.000 -1.000 0.000 0.000 -1.000 0.000 0.000 -1.000 0.000 0.000 1.000 0.000 0.000 1.000 0.000 0.000 1.000 0.000 0.000 1.000 0.000 -1.000 0.000 0.000 -1.000 0.000 0.000 -1.000 0.000 0.000 -1.000 0.000 0.000 1.000 0.000 0.000 1.000 0.000 0.000 1.000 0.000 0.000 1.000 0.000 0.000 0.000 0.000 1.000 0.000 0.000 1.000 0.000 0.000 1.000 0.000 0.000 1.000 0.000 0.000 -1.000 0.000 0.000 -1.000 0.000 0.000 -1.000 0.000 0.000 -1.000 0.000 -1.000 0.000 0.000 -1.000 0.000 0.000 -1.000 0.000 0.000 -1.000 0.000 0.000 1.000 0.000 0.000 1.000 0.000 0.000 1.000 0.000 0.000 1.000 0.000 -1.000 0.000 0.000 -1.000 0.000 0.000 -1.000 0.000 0.000 -1.000 0.000 0.000 1.000 0.000 0.000 1.000 0.000 0.000 1.000 0.000 0.000 1.000 0.000 0.000 0.000 0.000 1.000 0.000 0.000 1.000 0.000 0.000 1.000 0.000 0.000 1.000 0.000 0.000 -1.000 0.000 0.000 -1.000 0.000 0.000 -1.000 0.000 0.000 -1.000</float_array>
        <technique_common><accessor source="#aws_robomaker_warehouse_DockDoor_01_visual-Normal0-array" count="72" stride="3">
          <param name="X" type="float"/><param name="Y" type="float"/><param name="Z" type="float"/></accessor></technique_common></source>
      <source id="aws_robomaker_warehouse_DockDoor_01_visual-uv"><float_array id="aws_robomaker_warehouse_DockDoor_01_visual-UV0-array" count="144">-0.72000 0.00000 0.72000 0.00000 0.72000 10.00000 -0.72000 10.00000 0.72000 0.00000 -0.72000 0.00000 -0.72000 10.00000 0.72000 10.00000 0.01600 0.00000 -0.01600 0.00000 -0.01600 10.00000 0.01600 10.00000 -0.01600 0.00000 0.01600 0.00000 0.01600 10.00000 -0.01600 10.00000 -0.72000 -0.01600 0.72000 -0.01600 0.72000 0.01600 -0.72000 0.01600 -0.72000 0.01600 0.72000 0.01600 0.72000 -0.01600 -0.72000 -0.01600 -0.72000 0.00000 -0.68800 0.00000 -0.68800 10.66667 -0.72000 10.66667 -0.68800 0.00000 -0.72000 0.00000 -0.72000 10.66667 -0.68800 10.66667 0.03200 0.00000 -0.03200 0.00000 -0.03200 10.66667 0.03200 10.66667 -0.03200 0.00000 0.03200 0.00000 0.03200 10.66667 -0.03200 10.66667 -0.72000 -0.03200 -0.68800 -0.03200 -0.68800 0.03200 -0.72000 0.03200 -0.72000 0.03200 -0.68800 0.03200 -0.68800 -0.03200 -0.72000 -0.03200 0.68800 0.00000 0.72000 0.00000 0.72000 10.66667 0.68800 10.66667 0.72000 0.00000 0.68800 0.00000 0.68800 10.66667 0.72000 10.66667 0.03200 0.00000 -0.03200 0.00000 -0.03200 10.66667 0.03200 10.66667 -0.03200 0.00000 0.03200 0.00000 0.03200 10.66667 -0.03200 10.66667 0.68800 -0.03200 0.72000 -0.03200 0.72000 0.03200 0.68800 0.03200 0.68800 0.03200 0.72000 0.03200 0.72000 -0.03200 0.68800 -0.03200</float_array>
        <technique_common><accessor source="#aws_robomaker_warehouse_DockDoor_01_visual-UV0-array" count="72" stride="2">
          <param name="S" type="float"/><param name="T" type="float"/></accessor></technique_common></source>
      <vertices id="aws_robomaker_warehouse_DockDoor_01_visual-vtx"><input semantic="POSITION" source="#aws_robomaker_warehouse_DockDoor_01_visual-pos"/></vertices>
      <triangles material="mat" count="36">
        <input semantic="VERTEX" source="#aws_robomaker_warehouse_DockDoor_01_visual-vtx" offset="0"/>
        <input semantic="NORMAL" source="#aws_robomaker_warehouse_DockDoor_01_visual-nrm" offset="1"/>
        <input semantic="TEXCOORD" source="#aws_robomaker_warehouse_DockDoor_01_visual-uv" offset="2" set="0"/>
        <p>0 0 0 1 1 1 2 2 2 0 0 0 2 2 2 3 3 3 4 4 4 5 5 5 6 6 6 4 4 4 6 6 6 7 7 7 8 8 8 9 9 9 10 10 10 8 8 8 10 10 10 11 11 11 12 12 12 13 13 13 14 14 14 12 12 12 14 14 14 15 15 15 16 16 16 17 17 17 18 18 18 16 16 16 18 18 18 19 19 19 20 20 20 21 21 21 22 22 22 20 20 20 22 22 22 23 23 23 24 24 24 25 25 25 26 26 26 24 24 24 26 26 26 27 27 27 28 28 28 29 29 29 30 30 30 28 28 28 30 30 30 31 31 31 32 32 32 33 33 33 34 34 34 32 32 32 34 34 34 35 35 35 36 36 36 37 37 37 38 38 38 36 36 36 38 38 38 39 39 39 40 40 40 41 41 41 42 42 42 40 40 40 42 42 42 43 43 43 44 44 44 45 45 45 46 46 46 44 44 44 46 46 46 47 47 47 48 48 48 49 49 49 50 50 50 48 48 48 50 50 50 51 51 51 52 52 52 53 53 53 54 54 54 52 52 52 54 54 54 55 55 55 56 56 56 57 57 57 58 58 58 56 56 56 58 58 58 59 59 59 60 60 60 61 61 61 62 62 62 60 60 60 62 62 62 63 63 63 64 64 64 65 65 65 66 66 66 64 64 64 66 66 66 67 67 67 68 68 68 69 69 69 70 70 70 68 68 68 70 70 70 71 71 71</p></triangles>
    </mesh></geometry>
  </library_geometries>
  <library_visual_scenes><visual_scene id="scene" name="scene">
    <node id="aws_robomaker_warehouse_DockDoor_01_visual" name="aws_robomaker_warehouse_DockDoor_01_visual"><instance_geometry url="#aws_robomaker_warehouse_DockDoor_01_visual-lib">
      <bind_material><technique_common><instance_material symbol="mat" target="#mat">
        <bind_vertex_input semantic="UVSET0" input_semantic="TEXCOORD" input_set="0"/></instance_material></technique_common></bind_material>
    </instance_geometry></node></visual_scene></library_visual_scenes>
  <scene><instance_visual_scene url="#scene"/></scene>
</COLLADA>
